<svg width="566" height="528" viewBox="0 0 566 528" fill="none" xmlns="http://www.w3.org/2000/svg">
<path d="M0 0H566V528H0V0Z" fill="#C5D0E0"/>
<path d="M188.8 334.1L188.6 334.3C185.9 328.4 184.2 321.7 183.5 314.3C184.2 321.6 186.1 328.2 188.8 334.1Z" fill="white"/>
<path d="M253 247.8C266.144 247.8 276.8 237.144 276.8 224C276.8 210.856 266.144 200.2 253 200.2C239.856 200.2 229.2 210.856 229.2 224C229.2 237.144 239.856 247.8 253 247.8Z" fill="white"/>
<path d="M324.9 164H241.1C204.7 164 183 185.7 183 222.1V305.9C183 316.8 184.9 326.3 188.6 334.3C197.2 353.3 215.6 364 241.1 364H324.9C361.3 364 383 342.3 383 305.9V283V222.1C383 185.7 361.3 164 324.9 164ZM366.7 269C358.9 262.3 346.3 262.3 338.5 269L296.9 304.7C289.1 311.4 276.5 311.4 268.7 304.7L265.3 301.9C258.2 295.7 246.9 295.1 238.9 300.5L201.5 325.6C199.3 320 198 313.5 198 305.9V222.1C198 193.9 212.9 179 241.1 179H324.9C353.1 179 368 193.9 368 222.1V270.1L366.7 269Z" fill="white"/>
</svg>
